<?xml version="1.0" encoding="UTF-8" standalone="no"?>
<!-- Created with Inkscape (http://www.inkscape.org/) -->

<svg
   xmlns:dc="http://purl.org/dc/elements/1.1/"
   xmlns:cc="http://creativecommons.org/ns#"
   xmlns:rdf="http://www.w3.org/1999/02/22-rdf-syntax-ns#"
   xmlns:svg="http://www.w3.org/2000/svg"
   xmlns="http://www.w3.org/2000/svg"
   xmlns:xlink="http://www.w3.org/1999/xlink"
   xmlns:sodipodi="http://sodipodi.sourceforge.net/DTD/sodipodi-0.dtd"
   xmlns:inkscape="http://www.inkscape.org/namespaces/inkscape"
   width="662.95312"
   height="662.89264"
   id="svg2"
   sodipodi:version="0.32"
   inkscape:version="0.47 r22583"
   sodipodi:docname="Category installations.svg"
   inkscape:output_extension="org.inkscape.output.svg.inkscape"
   inkscape:export-filename="/home/wouter/Scoutwiki/PNG/Category installations.png"
   inkscape:export-xdpi="27.153017"
   inkscape:export-ydpi="27.153017"
   version="1.0">
  <sodipodi:namedview
     id="base"
     pagecolor="#ffffff"
     bordercolor="#666666"
     borderopacity="1.0"
     inkscape:pageopacity="0.0"
     inkscape:pageshadow="2"
     inkscape:zoom="1.1794998"
     inkscape:cx="329.7808"
     inkscape:cy="330.16981"
     inkscape:document-units="px"
     inkscape:current-layer="layer2"
     inkscape:window-width="1280"
     inkscape:window-height="1009"
     inkscape:window-x="0"
     inkscape:window-y="0"
     width="744.09449px"
     height="1052.3622px"
     showborder="true"
     inkscape:showpageshadow="true"
     showgrid="true"
     inkscape:window-maximized="1" />
  <defs
     id="defs4">
    <inkscape:perspective
       sodipodi:type="inkscape:persp3d"
       inkscape:vp_x="0 : 331.44632 : 1"
       inkscape:vp_y="0 : 1000 : 0"
       inkscape:vp_z="662.95312 : 331.44632 : 1"
       inkscape:persp3d-origin="331.47656 : 220.96421 : 1"
       id="perspective42" />
    <linearGradient
       id="linearGradient9603">
      <stop
         offset="0"
         style="stop-color: white; stop-opacity: 0.876289;"
         id="stop9605" />
      <stop
         offset="1"
         style="stop-color: white; stop-opacity: 0;"
         id="stop9607" />
    </linearGradient>
    <radialGradient
       r="88.388351"
       id="radialGradient3333"
       fx="131.82492"
       fy="315.4559"
       gradientUnits="userSpaceOnUse"
       inkscape:collect="always"
       cy="315.4559"
       cx="131.82492"
       xlink:href="#linearGradient9603" />
    <linearGradient
       inkscape:collect="always"
       id="linearGradient60360">
      <stop
         style="stop-color: red; stop-opacity: 1;"
         offset="0"
         id="stop60362" />
      <stop
         style="stop-color: red; stop-opacity: 0;"
         offset="1"
         id="stop60364" />
    </linearGradient>
    <linearGradient
       inkscape:collect="always"
       id="linearGradient58582">
      <stop
         style="stop-color: rgb(255, 102, 0); stop-opacity: 1;"
         offset="0"
         id="stop58584" />
      <stop
         style="stop-color: rgb(255, 102, 0); stop-opacity: 0;"
         offset="1"
         id="stop58586" />
    </linearGradient>
    <linearGradient
       inkscape:collect="always"
       xlink:href="#linearGradient58582"
       id="linearGradient4468"
       gradientUnits="userSpaceOnUse"
       gradientTransform="matrix(1.23047,0,0,1.04802,145.648,-82.5243)"
       x1="251.17596"
       y1="629.64551"
       x2="279.27991"
       y2="537.61462" />
    <linearGradient
       inkscape:collect="always"
       xlink:href="#linearGradient60360"
       id="linearGradient4470"
       gradientUnits="userSpaceOnUse"
       gradientTransform="matrix(1.23047,0,0,1.04802,136.279,-87.0174)"
       x1="248.92949"
       y1="632.10767"
       x2="243.56352"
       y2="602.56073" />
    <inkscape:perspective
       id="perspective2845"
       inkscape:persp3d-origin="0.5 : 0.33333333 : 1"
       inkscape:vp_z="1 : 0.5 : 1"
       inkscape:vp_y="0 : 1000 : 0"
       inkscape:vp_x="0 : 0.5 : 1"
       sodipodi:type="inkscape:persp3d" />
  </defs>
  <metadata
     id="metadata7">
    <rdf:RDF>
      <cc:Work
         rdf:about="">
        <dc:format>image/svg+xml</dc:format>
        <dc:type
           rdf:resource="http://purl.org/dc/dcmitype/StillImage" />
        <cc:license
           rdf:resource="http://creativecommons.org/licenses/by-sa/2.5/" />
        <dc:title></dc:title>
      </cc:Work>
      <cc:License
         rdf:about="http://creativecommons.org/licenses/by-sa/2.5/">
        <cc:permits
           rdf:resource="http://web.resource.org/cc/Reproduction" />
        <cc:permits
           rdf:resource="http://web.resource.org/cc/Distribution" />
        <cc:requires
           rdf:resource="http://web.resource.org/cc/Notice" />
        <cc:requires
           rdf:resource="http://web.resource.org/cc/Attribution" />
        <cc:permits
           rdf:resource="http://web.resource.org/cc/DerivativeWorks" />
        <cc:requires
           rdf:resource="http://web.resource.org/cc/ShareAlike" />
      </cc:License>
    </rdf:RDF>
  </metadata>
  <g
     inkscape:groupmode="layer"
     id="layer3"
     inkscape:label="background"
     style="display:inline"
     transform="translate(-37.0738,-195.201)">
    <path
       style="fill:#ffb380;fill-opacity:1;fill-rule:nonzero;stroke:#536c00;stroke-width:9.52637958999999945;stroke-linecap:round;stroke-miterlimit:4;stroke-opacity:1;stroke-dasharray:none;stroke-dashoffset:0;display:inline"
       id="path5975"
       sodipodi:cx="-325.2691"
       sodipodi:cy="-121.43507"
       sodipodi:type="arc"
       d="m -246.4772,-121.43507 a 78.791901,70.710678 0 1 1 -157.5838,0 78.791901,70.710678 0 1 1 157.5838,0 z"
       transform="matrix(2.23409,3.26313,-3.63571,2.48917,653.728,1890.32)"
       inkscape:export-xdpi="5.4302483"
       inkscape:export-filename="/home/wouter/Scoutwiki/Category installations.png"
       inkscape:export-ydpi="5.4302483"
       sodipodi:rx="78.791901"
       sodipodi:ry="70.710678" />
  </g>
  <g
     inkscape:label="Ebene 1"
     id="layer1"
     inkscape:groupmode="layer"
     style="display:inline"
     transform="translate(-37.0738,-195.201)">
    <rect
       style="fill:#a05a2c;fill-opacity:1;fill-rule:nonzero;stroke:#a05a2c;stroke-width:18.06955338;stroke-linecap:round;stroke-linejoin:round;stroke-miterlimit:4;stroke-opacity:1;stroke-dasharray:none;stroke-dashoffset:0;display:inline"
       id="rect54107"
       width="74.343277"
       height="147.23383"
       x="663.47882"
       y="-97.007561"
       transform="matrix(0.34208709,0.93966825,-0.83236293,0.55423095,0,0)"
       inkscape:export-filename="C:\Documents and Settings\Ile\Työpöytä\PartioWiki\luokka_viihde.png"
       inkscape:export-xdpi="24.290001"
       inkscape:export-ydpi="24.290001" />
    <path
       sodipodi:type="arc"
       style="fill:#c47623;fill-opacity:1;fill-rule:nonzero;stroke:#a05a2c;stroke-width:6;stroke-linecap:round;stroke-linejoin:round;stroke-miterlimit:4;stroke-opacity:1;stroke-dasharray:none;stroke-dashoffset:0;display:inline"
       id="path54995"
       sodipodi:cx="192.14285"
       sodipodi:cy="681.64789"
       sodipodi:rx="12.142858"
       sodipodi:ry="12.142858"
       d="m 204.28571,681.64789 a 12.142858,12.142858 0 1 1 -24.28571,0 12.142858,12.142858 0 1 1 24.28571,0 z"
       transform="matrix(2.928121,1.2278035,-1.441552,2.4939425,617.21569,-1250.7079)"
       inkscape:export-filename="C:\Documents and Settings\Ile\Työpöytä\PartioWiki\luokka_viihde.png"
       inkscape:export-xdpi="24.290001"
       inkscape:export-ydpi="24.290001" />
    <rect
       style="fill:#a05a2c;fill-opacity:1;fill-rule:nonzero;stroke:#a05a2c;stroke-width:18.03469849;stroke-linecap:round;stroke-linejoin:round;stroke-miterlimit:4;stroke-opacity:1;stroke-dasharray:none;stroke-dashoffset:0;display:inline"
       id="rect57656"
       width="75.276878"
       height="144.84654"
       x="170.27046"
       y="659.26343"
       transform="matrix(-0.45136996,0.89233691,0.77125376,0.6365278,0,0)"
       inkscape:export-filename="C:\Documents and Settings\Ile\Työpöytä\PartioWiki\luokka_viihde.png"
       inkscape:export-xdpi="24.290001"
       inkscape:export-ydpi="24.290001" />
    <path
       sodipodi:type="arc"
       style="fill:#c47623;fill-opacity:1;fill-rule:nonzero;stroke:#a05a2c;stroke-width:6;stroke-linecap:round;stroke-linejoin:round;stroke-miterlimit:4;stroke-opacity:1;stroke-dasharray:none;stroke-dashoffset:0;display:inline"
       id="path57658"
       sodipodi:cx="192.14285"
       sodipodi:cy="681.64789"
       sodipodi:rx="12.142858"
       sodipodi:ry="12.142858"
       d="m 204.28571,681.64789 a 12.142858,12.142858 0 1 1 -24.28571,0 12.142858,12.142858 0 1 1 24.28571,0 z"
       transform="matrix(-3.064348,0.9567215,1.123276,2.609971,350.23569,-1266.5415)"
       inkscape:export-filename="C:\Documents and Settings\Ile\Työpöytä\PartioWiki\luokka_viihde.png"
       inkscape:export-xdpi="24.290001"
       inkscape:export-ydpi="24.290001" />
    <rect
       style="fill:#a45928;fill-opacity:1;fill-rule:nonzero;stroke:#a05a2c;stroke-width:13.4738102;stroke-linecap:round;stroke-linejoin:round;stroke-miterlimit:4;stroke-opacity:1;stroke-dasharray:none;stroke-dashoffset:0;display:inline"
       id="rect57662"
       width="72.607399"
       height="119.06389"
       x="329.19101"
       y="610.09344"
       inkscape:export-filename="C:\Documents and Settings\Ile\Työpöytä\PartioWiki\luokka_viihde.png"
       inkscape:export-xdpi="24.290001"
       inkscape:export-ydpi="24.290001" />
    <path
       sodipodi:type="arc"
       style="fill:#c47623;fill-opacity:1;fill-rule:nonzero;stroke:#a05a2c;stroke-width:6;stroke-linecap:round;stroke-linejoin:round;stroke-miterlimit:4;stroke-opacity:1;stroke-dasharray:none;stroke-dashoffset:0;display:inline"
       id="path57660"
       sodipodi:cx="192.14285"
       sodipodi:cy="681.64789"
       sodipodi:rx="12.142858"
       sodipodi:ry="12.142858"
       d="m 204.28571,681.64789 a 12.142858,12.142858 0 1 1 -24.28571,0 12.142858,12.142858 0 1 1 24.28571,0 z"
       transform="matrix(3.0925195,0,0,2.125102,-229.17881,-707.23772)"
       inkscape:export-filename="C:\Documents and Settings\Ile\Työpöytä\PartioWiki\luokka_viihde.png"
       inkscape:export-xdpi="24.290001"
       inkscape:export-ydpi="24.290001" />
    <path
       style="fill:none;stroke:#000000;stroke-width:21.08441925;stroke-linecap:butt;stroke-linejoin:miter;stroke-miterlimit:4;stroke-opacity:1;stroke-dasharray:none;display:inline"
       d="m 450.5788,575.64895 c 6.4736,5.51334 16.5963,18.10659 25.6438,25.8124 7.77175,6.61902 14.62965,8.48925 20.9811,13.89895 31.4951,22.16435 47.9038,30.42368 79.26205,75.4516 -14.05075,70.72751 -69.6717,51.25701 -104.90585,21.8413 -15.83085,-21.6348 -42.25585,-34.08965 -62.9433,-51.62483 -2.89625,32.80015 6.6185,55.25244 1.9313,88.04635 -1.88965,6.43727 -30.05345,24.16964 -34.5688,25.13105 -25.9483,4.38456 -44.54275,-4.6844 -55.94925,-23.82681 -2.3352,-28.56143 3.36945,-56.93611 4.66235,-85.37945 0,-14.88515 -13.65735,-7.0826 -16.31875,1.98551 -20.78545,13.66782 -41.1831,30.82429 -60.21225,38.20758 -13.8299,11.52665 -24.54725,14.73832 -37.6999,21.35948 -7.8316,3.33529 -27.8236,-0.96054 -32.6375,-1.98551 -17.65365,-8.75613 -28.7756,-33.2982 -29.6233,-50.12105 22.52285,-43.06229 104.9188,-64.33018 129.86715,-96.81102"
       id="path58561"
       sodipodi:nodetypes="cscccccccccccccc"
       inkscape:export-filename="C:\Documents and Settings\Ile\Työpöytä\PartioWiki\luokka_viihde.png"
       inkscape:export-xdpi="24.290001"
       inkscape:export-ydpi="24.290001" />
    <g
       inkscape:label="Layer 1"
       id="g2431"
       style="display:inline"
       transform="matrix(2.32186,0,0,2.32186,593.46182,-910.47435)">
      <g
         id="g4459"
         transform="matrix(1.12714,0,0,1.12714,-599.645,15.3529)">
        <path
           sodipodi:nodetypes="cscsscscc"
           inkscape:export-ydpi="24.290001"
           inkscape:export-xdpi="24.290001"
           inkscape:export-filename="C:\Documents and Settings\Ile\Työpöytä\PartioWiki\luokka_viihde.png"
           id="path58577"
           d="m 409.0926,572.74388 c -5.43206,-1.36988 -23.14037,-1.00679 -32.33148,-17.04965 -6.48487,-11.31921 -12.87016,-43.31936 -1.41934,-92.90138 11.23715,12.42112 10.96856,24.09108 25.14734,59.61681 8.33731,20.88961 67.98957,15.28129 85.95544,5.24709 32.38052,-18.08499 13.02443,-79.26526 18.90722,-77.23668 4.19281,1.44582 21.32843,46.32546 23.02862,61.84875 4.71089,43.01169 -30.52575,56.68829 -48.90565,60.61488 -40.45763,14.82815 -55.595,3.18235 -70.38215,-0.13982 z"
           style="fill:#ffcc00;fill-rule:evenodd;stroke:#000000;stroke-width:7.94912004;stroke-linecap:butt;stroke-linejoin:miter;stroke-miterlimit:4;stroke-opacity:1;stroke-dasharray:none" />
        <rect
           rx="25.992414"
           ry="13.995916"
           y="462.46112"
           x="389.13461"
           height="76.953781"
           width="115.60916"
           id="rect2201"
           style="opacity:0.98999999;fill:#000000;fill-opacity:1;fill-rule:nonzero;stroke:#000000;stroke-width:2.32961011;stroke-linecap:butt;stroke-linejoin:miter;stroke-miterlimit:4;stroke-opacity:1;stroke-dasharray:none;stroke-dashoffset:0;marker:none;visibility:visible;display:inline;overflow:visible" />
        <path
           inkscape:export-ydpi="24.290001"
           inkscape:export-xdpi="24.290001"
           inkscape:export-filename="C:\Documents and Settings\Ile\Työpöytä\PartioWiki\luokka_viihde.png"
           sodipodi:nodetypes="csscscscssc"
           id="path2187"
           d="m 375.96352,502.23311 c 3.40536,4.2698 13.50511,8.14199 12.90394,12.044 -2.47041,16.03449 4.55876,21.54484 14.03842,23.84466 16.52718,4.00956 51.94778,2.59797 72.62979,2.98017 23.70308,-2.0125 29.47994,-8.62603 32.17882,-20.30297 2.55865,-11.07012 4.27936,-17.59792 8.26948,-20.17174 0.56818,11.17094 -0.48107,36.39175 -5.01769,45.82357 -7.54306,15.68242 -21.1991,14.9208 -27.18319,22.01089 -37.06101,14.79957 -53.52431,7.47135 -69.57556,1.10963 -7.43412,-2.94643 -29.14776,-4.84369 -33.7202,-24.68777 -1.86871,-8.11006 1.72231,-25.11717 -4.52381,-42.65044 z"
           style="fill:url(#linearGradient4468);fill-opacity:1;fill-rule:evenodd;stroke:none;display:inline" />
        <path
           inkscape:export-ydpi="24.290001"
           inkscape:export-xdpi="24.290001"
           inkscape:export-filename="C:\Documents and Settings\Ile\Työpöytä\PartioWiki\luokka_viihde.png"
           sodipodi:nodetypes="cscsssc"
           id="path2191"
           d="m 396.11572,543.89448 c 20.76477,8.36523 13.90601,9.81193 42.89186,8.1829 42.96732,-2.41483 39.87871,-0.11141 61.49016,-14.93085 0.96297,11.19508 -7.09213,19.02327 -21.95587,27.34115 -14.67174,8.21044 -28.11656,6.98644 -33.28562,6.9567 -6.19087,-0.0356 -11.7644,-0.17581 -23.47053,-6.55429 -15.78365,-8.60024 -16.30636,-6.3954 -25.67,-20.99561 z"
           style="fill:url(#linearGradient4470);fill-opacity:1;fill-rule:evenodd;stroke:none;display:inline" />
        <path
           transform="matrix(1.03195,0,0,0.831978,-119.809,107.064)"
           d="m 606.09155,436.16913 c 0,10.87889 -25.3266,19.69797 -56.56854,19.69797 -31.24194,0 -56.56854,-8.81908 -56.56854,-19.69797 0,-10.87889 25.3266,-19.69798 56.56854,-19.69798 31.24194,0 56.56854,8.81909 56.56854,19.69798 z"
           sodipodi:ry="19.697975"
           sodipodi:rx="56.568542"
           sodipodi:cy="436.16913"
           sodipodi:cx="549.52301"
           id="path2195"
           style="opacity:0.98999999;fill:#808080;fill-opacity:1;fill-rule:nonzero;stroke:#000000;stroke-width:5.13244009;stroke-linecap:butt;stroke-linejoin:miter;stroke-miterlimit:4;stroke-opacity:1;stroke-dasharray:none;stroke-dashoffset:0;marker:none;visibility:visible;display:inline;overflow:visible"
           sodipodi:type="arc" />
        <path
           sodipodi:nodetypes="cscsc"
           id="path2670"
           d="m 498.45905,474.77881 c -8.4828,4.81258 -22.45316,9.23148 -53.01754,9.42534 -27.75476,0.17469 -41.94275,-4.37713 -50.42556,-9.42534 0,-4.81258 22.67926,-7.54027 52.075,-7.54027 29.39575,0 51.3681,2.72769 51.3681,7.54027 z"
           style="opacity:0.98999999;fill:#c8a679;fill-opacity:1;fill-rule:nonzero;stroke:none;stroke-width:2;marker:none;visibility:visible;display:inline;overflow:visible" />
        <path
           sodipodi:nodetypes="ccsccc"
           id="rect2667"
           d="m 452.01769,476.75899 36.2356,-33.29541 c 4.3272,-4.12439 8.84593,-6.35382 10.1317,-4.99878 1.28575,1.35507 -1.16275,5.7663 -5.48994,9.89068 l -31.61607,28.66554 c -2.86822,0.37326 -6.20748,0.34127 -9.26129,-0.26203 z"
           style="opacity:0.98999999;fill:#552200;fill-opacity:1;fill-rule:nonzero;stroke:#000000;stroke-width:1.45779002;stroke-linecap:butt;stroke-linejoin:miter;stroke-miterlimit:4;stroke-opacity:1;stroke-dashoffset:0;marker:none;visibility:visible;display:inline;overflow:visible" />
      </g>
    </g>
  </g>
  <g
     inkscape:groupmode="layer"
     id="layer2"
     inkscape:label="overlay"
     style="display:inline"
     transform="translate(-37.0738,-195.201)">
    <path
       style="opacity:0.93888903;fill:url(#radialGradient3333) #000000;fill-opacity:1;stroke:#5fee4a;stroke-width:0pt;stroke-miterlimit:4;stroke-opacity:1;stroke-dasharray:none"
       id="path6012"
       sodipodi:cx="164.1498"
       sodipodi:cy="354.85184"
       sodipodi:type="arc"
       d="m 252.53815,354.85184 a 88.388351,88.388351 0 1 1 -176.776706,0 88.388351,88.388351 0 1 1 176.776706,0 z"
       transform="matrix(3.31387,0,0,3.31387,-173.834,-648.015)"
       inkscape:export-xdpi="24.295633"
       inkscape:export-filename="C:\Documents and Settings\Ile\Työpöytä\PartioWiki\luokka_partiotaidot.png"
       inkscape:export-ydpi="24.295633"
       sodipodi:rx="88.388351"
       sodipodi:ry="88.388351" />
  </g>
</svg>
